<svg width="20" height="20" viewBox="0 0 20 20" fill="none" xmlns="http://www.w3.org/2000/svg">
<path d="M7.42516 17.225C7.26683 17.225 7.1085 17.1667 6.9835 17.0417C6.74183 16.8 6.74183 16.4 6.9835 16.1583L12.4168 10.725C12.8168 10.325 12.8168 9.675 12.4168 9.275L6.9835 3.84167C6.74183 3.6 6.74183 3.2 6.9835 2.95833C7.22516 2.71667 7.62516 2.71667 7.86683 2.95833L13.3002 8.39167C13.7252 8.81667 13.9668 9.39167 13.9668 10C13.9668 10.6083 13.7335 11.1833 13.3002 11.6083L7.86683 17.0417C7.74183 17.1583 7.5835 17.225 7.42516 17.225Z" fill="#777777" fill-opacity="0.466667"/>
<path d="M7.47412 3.28685L7.51318 3.31224L12.9468 8.74486C13.2787 9.07682 13.4672 9.52523 13.4673 9.99974C13.4673 10.4187 13.3266 10.8116 13.0679 11.1228L12.9497 11.2517L12.9468 11.2546L7.52295 16.6775C7.48109 16.7156 7.44323 16.7253 7.42529 16.7253C7.40761 16.7253 7.39174 16.7219 7.37842 16.7165L7.3374 16.6882C7.31594 16.6668 7.30233 16.636 7.30225 16.6003C7.30225 16.5823 7.30595 16.5654 7.31201 16.5505L7.3374 16.5115L12.77 11.0788C13.3281 10.5208 13.3638 9.6357 12.8755 9.03685L12.77 8.92162L7.3374 3.48802C7.3159 3.46652 7.30228 3.43593 7.30225 3.40013C7.30225 3.38206 7.30591 3.36527 7.31201 3.35033L7.3374 3.31224C7.35893 3.29071 7.38944 3.27708 7.42529 3.27708C7.44307 3.2771 7.45937 3.28092 7.47412 3.28685Z" stroke="#777777" stroke-opacity="0.466667"/>
</svg>
