<svg width="24" height="25" viewBox="0 0 24 25" fill="none" xmlns="http://www.w3.org/2000/svg">
<path d="M9.54914 21.2499C10.4886 21.2499 11.2501 20.4883 11.2501 19.5489C11.2501 18.6095 10.4886 17.8479 9.54914 17.8479C8.60971 17.8479 7.84814 18.6095 7.84814 19.5489C7.84814 20.4883 8.60971 21.2499 9.54914 21.2499Z" stroke="black" stroke-width="1.5" stroke-linecap="round" stroke-linejoin="round"/>
<path d="M16.9598 21.2499C17.8992 21.2499 18.6608 20.4883 18.6608 19.5489C18.6608 18.6095 17.8992 17.8479 16.9598 17.8479C16.0204 17.8479 15.2588 18.6095 15.2588 19.5489C15.2588 20.4883 16.0204 21.2499 16.9598 21.2499Z" stroke="black" stroke-width="1.5" stroke-linecap="round" stroke-linejoin="round"/>
<path d="M5.606 6.055L7.616 12.419C7.925 13.397 8.079 13.886 8.376 14.248C8.636 14.568 8.975 14.815 9.358 14.968C9.793 15.141 10.305 15.141 11.331 15.141H15.186C16.212 15.141 16.724 15.141 17.158 14.968C17.542 14.815 17.88 14.568 18.141 14.248C18.437 13.886 18.591 13.397 18.901 12.419L19.31 11.123L19.55 10.357L19.881 9.307C19.9991 8.9325 20.0274 8.53544 19.9634 8.148C19.8995 7.76055 19.7452 7.39361 19.513 7.07691C19.2809 6.76021 18.9774 6.50266 18.6271 6.32511C18.2768 6.14757 17.8897 6.05503 17.497 6.055H5.606ZM5.606 6.055L5.595 6.018C5.55277 5.87656 5.50608 5.73649 5.455 5.598C5.25255 5.08554 4.90923 4.64082 4.46473 4.31523C4.02022 3.98963 3.49266 3.79645 2.943 3.758C2.84 3.75 2.727 3.75 2.5 3.75" stroke="black" stroke-width="1.5" stroke-linecap="round" stroke-linejoin="round"/>
</svg>
