<svg width="17" height="16" viewBox="0 0 17 16" fill="none" xmlns="http://www.w3.org/2000/svg">
<path d="M1.71804 13.1044L1.8822 13.9719C1.92556 14.201 2.03491 14.4091 2.19712 14.5713C2.66219 15.0364 3.43677 15.0159 3.92719 14.5254L10.1899 8.2627C10.6021 7.85057 11.1763 7.65032 11.7348 7.72398C13.3632 7.93876 14.922 6.764 15.1926 5.1181L15.2526 4.75324C15.5944 2.67429 13.9306 0.918532 11.8425 1.15467L11.447 1.1994C9.70002 1.39696 8.4408 3.07435 8.76267 4.77513C8.87158 5.35066 8.67785 5.95771 8.24813 6.38743L7.12541 7.51015C6.85038 7.78519 6.51697 7.99387 6.15299 8.1188L5.12438 8.47185C4.55449 8.66745 4.09992 9.12202 3.90432 9.69191C3.7394 10.1724 3.38866 10.575 2.93337 10.8065L2.86304 10.8422C2.02004 11.2707 1.54765 12.2041 1.71804 13.1044Z" stroke="#121212" stroke-width="2" stroke-linecap="round"/>
</svg>
