<svg width="17" height="16" viewBox="0 0 17 16" fill="none" xmlns="http://www.w3.org/2000/svg">
<path d="M8.75 0C9.81087 0 10.8283 0.421427 11.5784 1.17157C12.3286 1.92172 12.75 2.93913 12.75 4C12.75 5.06087 12.3286 6.07828 11.5784 6.82843C10.8283 7.57857 9.81087 8 8.75 8C7.68913 8 6.67172 7.57857 5.92157 6.82843C5.17143 6.07828 4.75 5.06087 4.75 4C4.75 2.93913 5.17143 1.92172 5.92157 1.17157C6.67172 0.421427 7.68913 0 8.75 0ZM8.75 2C8.21957 2 7.71086 2.21071 7.33579 2.58579C6.96071 2.96086 6.75 3.46957 6.75 4C6.75 4.53043 6.96071 5.03914 7.33579 5.41421C7.71086 5.78929 8.21957 6 8.75 6C9.28043 6 9.78914 5.78929 10.1642 5.41421C10.5393 5.03914 10.75 4.53043 10.75 4C10.75 3.46957 10.5393 2.96086 10.1642 2.58579C9.78914 2.21071 9.28043 2 8.75 2ZM8.75 9C11.42 9 16.75 10.33 16.75 13V16H0.75V13C0.75 10.33 6.08 9 8.75 9ZM8.75 10.9C5.78 10.9 2.65 12.36 2.65 13V14.1H14.85V13C14.85 12.36 11.72 10.9 8.75 10.9Z" fill="#6C7A93"/>
</svg>
