<svg width="22" height="21" viewBox="0 0 22 21" fill="none" xmlns="http://www.w3.org/2000/svg">
<path d="M15.9999 9.30512C15.9999 8.95912 15.9999 8.78612 16.0519 8.63212C16.2029 8.18412 16.6019 8.01112 17.0019 7.82912C17.4499 7.62412 17.6739 7.52212 17.8969 7.50412C18.1489 7.48412 18.4019 7.53812 18.6179 7.65912C18.9039 7.81912 19.1039 8.12512 19.3079 8.37312C20.2509 9.51912 20.7229 10.0921 20.8949 10.7231C21.0349 11.2331 21.0349 11.7671 20.8949 12.2761C20.6439 13.1981 19.8489 13.9701 19.2599 14.6861C18.9589 15.0511 18.8079 15.2341 18.6179 15.3411C18.3982 15.463 18.1473 15.5169 17.8969 15.4961C17.6739 15.4781 17.4499 15.3761 17.0009 15.1711C16.6009 14.9891 16.2029 14.8161 16.0519 14.3681C15.9999 14.2141 15.9999 14.0411 15.9999 13.6951V9.30512ZM5.99991 9.30512C5.99991 8.86912 5.98791 8.47812 5.63591 8.17212C5.50791 8.06112 5.33791 7.98412 4.99891 7.82912C4.54991 7.62512 4.32591 7.52212 4.10291 7.50412C3.43591 7.45012 3.07691 7.90612 2.69291 8.37412C1.74891 9.51912 1.27691 10.0921 1.10391 10.7241C0.964713 11.2324 0.964713 11.7688 1.10391 12.2771C1.35591 13.1981 2.15191 13.9711 2.73991 14.6861C3.11091 15.1361 3.46591 15.5471 4.10291 15.4961C4.32591 15.4781 4.54991 15.3761 4.99891 15.1711C5.33891 15.0171 5.50791 14.9391 5.63591 14.8281C5.98791 14.5221 5.99991 14.1311 5.99991 13.6961V9.30512Z" stroke="#6C7A93" stroke-width="1.5" stroke-linecap="round" stroke-linejoin="round"/>
<path d="M4 7.5C4 4.186 7.134 1.5 11 1.5C14.866 1.5 18 4.186 18 7.5M18 15.5V16.3C18 18.067 16.21 19.5 14 19.5H12" stroke="#6C7A93" stroke-width="1.5" stroke-linecap="round" stroke-linejoin="round"/>
</svg>
