<svg width="49" height="48" viewBox="0 0 49 48" fill="none" xmlns="http://www.w3.org/2000/svg">
<path opacity="0.2" d="M14.99 4H34.01C36.328 4 37.486 4 38.422 4.326C39.3041 4.63945 40.1023 5.15173 40.7547 5.82317C41.407 6.49461 41.8961 7.3072 42.184 8.198C42.5 9.162 42.5 10.354 42.5 12.74V40.748C42.5 42.464 40.53 43.376 39.284 42.236C38.9344 41.913 38.476 41.7336 38 41.7336C37.524 41.7336 37.0656 41.913 36.716 42.236L35.75 43.12C35.1376 43.6863 34.3341 44.0009 33.5 44.0009C32.6659 44.0009 31.8624 43.6863 31.25 43.12C30.6376 42.5537 29.8341 42.2391 29 42.2391C28.1659 42.2391 27.3624 42.5537 26.75 43.12C26.1376 43.6863 25.3341 44.0009 24.5 44.0009C23.6659 44.0009 22.8624 43.6863 22.25 43.12C21.6376 42.5537 20.8341 42.2391 20 42.2391C19.1659 42.2391 18.3624 42.5537 17.75 43.12C17.1376 43.6863 16.3341 44.0009 15.5 44.0009C14.6659 44.0009 13.8624 43.6863 13.25 43.12L12.284 42.236C11.9344 41.913 11.476 41.7336 11 41.7336C10.524 41.7336 10.0656 41.913 9.716 42.236C8.47 43.376 6.5 42.464 6.5 40.748V12.74C6.5 10.354 6.5 9.16 6.816 8.2C7.416 6.374 8.806 4.942 10.578 4.326C11.514 4 12.672 4 14.99 4Z" fill="url(#paint0_linear_175_1588)"/>
<path d="M14.5 13.5C14.1022 13.5 13.7206 13.658 13.4393 13.9393C13.158 14.2206 13 14.6022 13 15C13 15.3978 13.158 15.7794 13.4393 16.0607C13.7206 16.342 14.1022 16.5 14.5 16.5H15.5C15.8978 16.5 16.2794 16.342 16.5607 16.0607C16.842 15.7794 17 15.3978 17 15C17 14.6022 16.842 14.2206 16.5607 13.9393C16.2794 13.658 15.8978 13.5 15.5 13.5H14.5ZM21.5 13.5C21.1022 13.5 20.7206 13.658 20.4393 13.9393C20.158 14.2206 20 14.6022 20 15C20 15.3978 20.158 15.7794 20.4393 16.0607C20.7206 16.342 21.1022 16.5 21.5 16.5H34.5C34.8978 16.5 35.2794 16.342 35.5607 16.0607C35.842 15.7794 36 15.3978 36 15C36 14.6022 35.842 14.2206 35.5607 13.9393C35.2794 13.658 34.8978 13.5 34.5 13.5H21.5ZM14.5 20.5C14.1022 20.5 13.7206 20.658 13.4393 20.9393C13.158 21.2206 13 21.6022 13 22C13 22.3978 13.158 22.7794 13.4393 23.0607C13.7206 23.342 14.1022 23.5 14.5 23.5H15.5C15.8978 23.5 16.2794 23.342 16.5607 23.0607C16.842 22.7794 17 22.3978 17 22C17 21.6022 16.842 21.2206 16.5607 20.9393C16.2794 20.658 15.8978 20.5 15.5 20.5H14.5ZM21.5 20.5C21.1022 20.5 20.7206 20.658 20.4393 20.9393C20.158 21.2206 20 21.6022 20 22C20 22.3978 20.158 22.7794 20.4393 23.0607C20.7206 23.342 21.1022 23.5 21.5 23.5H34.5C34.8978 23.5 35.2794 23.342 35.5607 23.0607C35.842 22.7794 36 22.3978 36 22C36 21.6022 35.842 21.2206 35.5607 20.9393C35.2794 20.658 34.8978 20.5 34.5 20.5H21.5ZM14.5 27.5C14.1022 27.5 13.7206 27.658 13.4393 27.9393C13.158 28.2206 13 28.6022 13 29C13 29.3978 13.158 29.7794 13.4393 30.0607C13.7206 30.342 14.1022 30.5 14.5 30.5H15.5C15.8978 30.5 16.2794 30.342 16.5607 30.0607C16.842 29.7794 17 29.3978 17 29C17 28.6022 16.842 28.2206 16.5607 27.9393C16.2794 27.658 15.8978 27.5 15.5 27.5H14.5ZM21.5 27.5C21.1022 27.5 20.7206 27.658 20.4393 27.9393C20.158 28.2206 20 28.6022 20 29C20 29.3978 20.158 29.7794 20.4393 30.0607C20.7206 30.342 21.1022 30.5 21.5 30.5H34.5C34.8978 30.5 35.2794 30.342 35.5607 30.0607C35.842 29.7794 36 29.3978 36 29C36 28.6022 35.842 28.2206 35.5607 27.9393C35.2794 27.658 34.8978 27.5 34.5 27.5H21.5Z" fill="#121212" fill-opacity="0.6"/>
<defs>
<linearGradient id="paint0_linear_175_1588" x1="24.5" y1="4" x2="27" y2="58.5" gradientUnits="userSpaceOnUse">
<stop stop-color="#1358A3"/>
<stop offset="1" stop-color="#07213D"/>
</linearGradient>
</defs>
</svg>
